<svg width="26" height="26" viewBox="0 0 26 26" fill="none" xmlns="http://www.w3.org/2000/svg">
<g clip-path="url(#clip0_708_361)">
<path d="M22.75 14.625H17.875C17.4442 14.6255 17.0312 14.7969 16.7265 15.1015C16.4219 15.4061 16.2505 15.8192 16.25 16.25V17.875H11.7115L8.12503 14.2885V9.75H9.75003C10.1809 9.74951 10.5939 9.57814 10.8985 9.2735C11.2032 8.96886 11.3745 8.55583 11.375 8.125V3.25C11.3745 2.81918 11.2032 2.40614 10.8985 2.1015C10.5939 1.79686 10.1809 1.62549 9.75003 1.625H4.87503C4.4442 1.62549 4.03117 1.79686 3.72653 2.1015C3.42189 2.40614 3.25052 2.81918 3.25003 3.25V8.125C3.25052 8.55583 3.42189 8.96886 3.72653 9.2735C4.03117 9.57814 4.4442 9.74951 4.87503 9.75H6.50003V14.2885L2.67559 18.1131C2.60011 18.1885 2.54023 18.278 2.49938 18.3766C2.45853 18.4752 2.4375 18.5808 2.4375 18.6875C2.4375 18.7942 2.45853 18.8998 2.49938 18.9984C2.54023 19.097 2.60011 19.1865 2.67559 19.2619L6.73809 23.3244C6.81351 23.3999 6.90306 23.4598 7.00162 23.5006C7.10019 23.5415 7.20584 23.5625 7.31253 23.5625C7.41922 23.5625 7.52487 23.5415 7.62343 23.5006C7.722 23.4598 7.81155 23.3999 7.88697 23.3244L11.7115 19.5H16.25V21.125C16.2505 21.5558 16.4219 21.9689 16.7265 22.2735C17.0312 22.5781 17.4442 22.7495 17.875 22.75H22.75C23.1809 22.7495 23.5939 22.5781 23.8985 22.2735C24.2032 21.9689 24.3745 21.5558 24.375 21.125V16.25C24.3745 15.8192 24.2032 15.4061 23.8985 15.1015C23.5939 14.7969 23.1809 14.6255 22.75 14.625ZM4.87503 3.25H9.75003V8.125H4.87503V3.25ZM7.31253 21.601L4.39898 18.6875L7.31253 15.774L10.2261 18.6875L7.31253 21.601ZM17.875 21.125V16.25H22.75V21.125H17.875Z" fill="#4B726D"/>
</g>
<defs>
<clipPath id="clip0_708_361">
<rect width="26" height="26" fill="white"/>
</clipPath>
</defs>
</svg>
