<svg width="24" height="24" viewBox="0 0 24 24" fill="none" xmlns="http://www.w3.org/2000/svg">
<g clip-path="url(#clip0_708_350)">
<path d="M21.8242 0H2.206C1.00222 0 0 0.96484 0 2.19511V16.8087C0 17.4058 0.238566 17.9769 0.650981 18.3923C1.06078 18.805 1.62039 19.0458 2.206 19.0458H8.20709C8.05985 21.1731 7.22906 22.4366 7.1888 22.4973C6.98437 22.7838 6.95831 23.1655 7.11625 23.4811C7.27466 23.7976 7.59806 24 7.94773 24H16.0825C16.4324 24 16.7559 23.7907 16.9143 23.4738C17.0721 23.1578 17.0457 22.7898 16.8407 22.5034C16.7995 22.4416 15.9675 21.1731 15.8199 19.0458H21.8242C23.0438 19.0458 24 18.0273 24 16.8087V2.19511C24 0.96484 23.0437 0 21.8242 0ZM2.206 1.88459H21.8242C22.0127 1.88459 22.1441 2.01152 22.1441 2.19511V12.307H1.85589V2.19511C1.85589 2.00188 2.02362 1.88459 2.206 1.88459ZM14.5903 22.1154H9.43816C9.72249 21.3587 9.9965 20.3308 10.0686 19.0458H13.9583C14.0306 20.3308 14.3053 21.3587 14.5903 22.1154ZM21.8242 17.1612H2.206C2.01755 17.1612 1.85589 16.9961 1.85589 16.8087V14.1916H22.1441V16.8088C22.1441 16.987 22.0193 17.1612 21.8242 17.1612Z" fill="#4B726D"/>
</g>
<defs>
<clipPath id="clip0_708_350">
<rect width="24" height="24" fill="white"/>
</clipPath>
</defs>
</svg>
