<svg width="20" height="27" viewBox="0 0 20 27" fill="none" xmlns="http://www.w3.org/2000/svg">
<path d="M18.9619 11.258H17.2742V7.25283C17.2742 3.25363 14.0126 0 9.99998 0C5.98731 0 2.72583 3.25576 2.72583 7.25757V11.258H1.05683C0.478526 11.258 0 11.7157 0 12.2918V24.3931C0 25.8312 1.18403 27 2.62745 27H17.3913C18.8347 27 20 25.8312 20 24.3931V12.2918C20 11.7157 19.5402 11.258 18.9619 11.258ZM4.81775 7.25757C4.81775 4.4062 7.14206 2.08643 9.99998 2.08643C12.8579 2.08643 15.1822 4.40406 15.1822 7.25283V11.258H4.81775V7.25757ZM17.9081 24.3931C17.9081 24.6807 17.68 24.9158 17.3913 24.9158H2.62745C2.33876 24.9158 2.09192 24.6807 2.09192 24.3931V13.3422H17.9081V24.3931Z" fill="#4B726D"/>
<path d="M10.0001 22.2543C10.5784 22.2543 11.046 21.7873 11.046 21.2111V17.4556C11.046 16.8794 10.5783 16.4124 10.0001 16.4124C9.42177 16.4124 8.9541 16.8794 8.9541 17.4556V21.2111C8.9541 21.7873 9.42176 22.2543 10.0001 22.2543Z" fill="#4B726D"/>
</svg>
