<svg width="27" height="27" viewBox="0 0 27 27" fill="none" xmlns="http://www.w3.org/2000/svg">
<g clip-path="url(#clip0_708_345)">
<path d="M25.0653 16.2785L22.534 13.7472C22.4557 13.6689 22.3627 13.6067 22.2604 13.5643C22.158 13.5218 22.0483 13.5 21.9375 13.5C21.8267 13.5 21.717 13.5218 21.6146 13.5643C21.5123 13.6067 21.4193 13.6689 21.341 13.7472L13.5 21.5881V25.3125H17.2244L25.0653 17.4716C25.1437 17.3932 25.2058 17.3003 25.2483 17.1979C25.2907 17.0955 25.3125 16.9858 25.3125 16.875C25.3125 16.7642 25.2907 16.6545 25.2483 16.5522C25.2058 16.4498 25.1437 16.3568 25.0653 16.2785ZM16.5256 23.625H15.1875V22.2869L19.4062 18.0682L20.7444 19.4063L16.5256 23.625ZM21.9375 18.2131L20.5994 16.875L21.9375 15.5369L23.2756 16.875L21.9375 18.2131Z" fill="#4B726D"/>
<path d="M16.875 10.9688V9.28125H15.0676C14.9891 8.97925 14.8684 8.68982 14.7092 8.42147L15.9891 7.14184L14.7957 5.94844L13.516 7.22832C13.2477 7.06913 12.9582 6.94847 12.6562 6.8699V5.0625H10.9688V6.8699C10.6668 6.94847 10.3773 7.06913 10.109 7.22832L8.82934 5.94844L7.63594 7.14184L8.91582 8.42147C8.75659 8.68982 8.63593 8.97925 8.5574 9.28125H6.75V10.9688H8.5574C8.63593 11.2707 8.75659 11.5602 8.91582 11.8285L7.63594 13.1082L8.82934 14.3016L10.109 13.0219C10.3774 13.181 10.6668 13.3016 10.9688 13.3801V15.1875H12.6562V13.3801C12.9582 13.3015 13.2477 13.1809 13.516 13.0217L14.7957 14.3016L15.9891 13.1082L14.7092 11.8285C14.8684 11.5602 14.9891 11.2707 15.0676 10.9688H16.875ZM11.8125 11.8125C11.4787 11.8125 11.1525 11.7135 10.875 11.5281C10.5975 11.3427 10.3812 11.0791 10.2535 10.7708C10.1257 10.4624 10.0923 10.1231 10.1574 9.79578C10.2225 9.46844 10.3833 9.16776 10.6193 8.93176C10.8553 8.69576 11.1559 8.53504 11.4833 8.46992C11.8106 8.40481 12.1499 8.43823 12.4583 8.56595C12.7666 8.69368 13.0302 8.90997 13.2156 9.18748C13.401 9.46498 13.5 9.79124 13.5 10.125C13.4994 10.5724 13.3215 11.0013 13.0051 11.3176C12.6888 11.634 12.2599 11.8119 11.8125 11.8125Z" fill="#4B726D"/>
<path d="M10.125 25.3125H5.0625C4.61509 25.312 4.18614 25.1341 3.86978 24.8177C3.55341 24.5014 3.37547 24.0724 3.375 23.625V3.375C3.37547 2.92759 3.55341 2.49864 3.86978 2.18228C4.18614 1.86591 4.61509 1.68797 5.0625 1.6875H18.5625C19.0099 1.68797 19.4389 1.86591 19.7552 2.18228C20.0716 2.49864 20.2495 2.92759 20.25 3.375V11.8125H18.5625V3.375H5.0625V23.625H10.125V25.3125Z" fill="#4B726D"/>
</g>
<defs>
<clipPath id="clip0_708_345">
<rect width="27" height="27" fill="white"/>
</clipPath>
</defs>
</svg>
