<svg width="23" height="23" viewBox="0 0 23 23" fill="none" xmlns="http://www.w3.org/2000/svg">
<g clip-path="url(#clip0_708_80)">
<path d="M22.1265 6.70226C22.5486 6.38712 22.499 5.73009 22.1265 5.35763L17.6306 0.861616C17.2581 0.489162 16.6584 0.489162 16.286 0.861616L8.99426 8.14067L1.71234 15.4099C1.33657 17.7411 0.950979 20.082 0.575195 22.4132L7.55211 21.2497C11.3239 17.4779 13.1063 15.7023 14.9052 13.9101C16.7042 12.1179 18.4735 10.3554 22.1265 6.70226Z" stroke="#4B726D" stroke-width="2" stroke-miterlimit="6.2" stroke-linecap="round" stroke-linejoin="round"/>
<path d="M19.874 8.95747L19.9533 8.87814C20.1997 8.63168 20.1997 8.23209 19.9533 7.98563L14.9355 2.96777C14.689 2.72131 14.2894 2.72131 14.043 2.96777L13.9637 3.0471C13.7172 3.29356 13.7172 3.69315 13.9637 3.93961L18.9815 8.95747C19.2279 9.20393 19.6275 9.20393 19.874 8.95747Z" fill="#4B726D"/>
<path d="M4.74457 22.3108L0.733643 18.2998L0.575195 22.4131L4.74457 22.3108Z" fill="#4B726D"/>
<path d="M8.09539 20.6616L8.17472 20.5822C8.42118 20.3358 8.42118 19.9362 8.17472 19.6897L3.15692 14.6719C2.91046 14.4254 2.51087 14.4254 2.26442 14.6719L2.18509 14.7512C1.93863 14.9977 1.93863 15.3973 2.18509 15.6437L7.20289 20.6616C7.44935 20.908 7.84893 20.908 8.09539 20.6616Z" fill="#4B726D"/>
</g>
<defs>
<clipPath id="clip0_708_80">
<rect width="23" height="23" fill="white"/>
</clipPath>
</defs>
</svg>
